<svg xmlns="http://www.w3.org/2000/svg" version="1.1" xmlns:xlink="http://www.w3.org/1999/xlink" width="1000" height="1000"><style>
    #light-icon {
      display: inline;
    }
    #dark-icon {
      display: none;
    }

    @media (prefers-color-scheme: dark) {
      #light-icon {
        display: none;
      }
      #dark-icon {
        display: inline;
      }
    }
  </style><g id="light-icon"><svg xmlns="http://www.w3.org/2000/svg" version="1.1" xmlns:xlink="http://www.w3.org/1999/xlink" width="1000" height="1000"><g clip-path="url(#SvgjsClipPath1190)"><rect width="1000" height="1000" fill="#ffffff"></rect><g transform="matrix(3.515625,0,0,3.515625,50,50)"><svg xmlns="http://www.w3.org/2000/svg" width="256" height="256" viewBox="0 0 200 200" fill="none"><rect width="200" height="200" rx="0" fill="url(#deep_texture_gradient)"></rect><g id="Centered-Icon-Group" transform="translate(0, -1) scale(1.2)">
    <path d="M 5 146.25 C 20 146.25 40 145.5 52 144 C 58 143.2 64 143.2 64 146.25 C 64 149.3 58 149.3 52 148.5 C 40 147 20 146.25 5 146.25 Z" fill="black"></path>
    <g id="Icon-Scholar-Sword" transform="rotate(30, 60, 145)">
      <path d="M60 145Q57 125 48 105L50 42L60 18L70 42L72 105Q63 125 60 145Z" fill="black"></path>
      <circle cx="60" cy="60" r="6" fill="white"></circle>
      <rect x="58.75" y="63" width="2.5" height="80" fill="white"></rect>
      <rect x="30" y="36" width="60" height="6" rx="1" fill="black"></rect>
      <circle cx="30" cy="39" r="5" fill="black"></circle>
      <circle cx="90" cy="39" r="5" fill="black"></circle>
      <rect x="55" y="15" width="10" height="21" fill="black"></rect>
      <circle cx="60" cy="12" r="7" fill="black"></circle>
    </g>
  </g></svg></g></g><defs><clipPath id="SvgjsClipPath1190"><rect width="1000" height="1000" x="0" y="0" rx="200" ry="200"></rect></clipPath></defs></svg></g><g id="dark-icon"><svg xmlns="http://www.w3.org/2000/svg" version="1.1" xmlns:xlink="http://www.w3.org/1999/xlink" width="1000" height="1000"><g clip-path="url(#SvgjsClipPath1191)"><rect width="1000" height="1000" fill="#ffffff"></rect><g transform="matrix(3.515625,0,0,3.515625,50,50)"><svg xmlns="http://www.w3.org/2000/svg" width="256" height="256" viewBox="0 0 200 200" fill="none"><rect width="200" height="200" rx="0" fill="url(#deep_texture_gradient)"></rect><g id="Centered-Icon-Group" transform="translate(0, -1) scale(1.2)">
    <path d="M 5 146.25 C 20 146.25 40 145.5 52 144 C 58 143.2 64 143.2 64 146.25 C 64 149.3 58 149.3 52 148.5 C 40 147 20 146.25 5 146.25 Z" fill="black"></path>
    <g id="Icon-Scholar-Sword" transform="rotate(30, 60, 145)">
      <path d="M60 145Q57 125 48 105L50 42L60 18L70 42L72 105Q63 125 60 145Z" fill="black"></path>
      <circle cx="60" cy="60" r="6" fill="white"></circle>
      <rect x="58.75" y="63" width="2.5" height="80" fill="white"></rect>
      <rect x="30" y="36" width="60" height="6" rx="1" fill="black"></rect>
      <circle cx="30" cy="39" r="5" fill="black"></circle>
      <circle cx="90" cy="39" r="5" fill="black"></circle>
      <rect x="55" y="15" width="10" height="21" fill="black"></rect>
      <circle cx="60" cy="12" r="7" fill="black"></circle>
    </g>
  </g></svg></g></g><defs><clipPath id="SvgjsClipPath1191"><rect width="1000" height="1000" x="0" y="0" rx="200" ry="200"></rect></clipPath></defs></svg></g></svg>